<svg width="16" height="16" viewBox="0 0 16 16" fill="none" xmlns="http://www.w3.org/2000/svg">
<path d="M8 1.5C4.41 1.5 1.5 4.41 1.5 8C1.5 11.59 4.41 14.5 8 14.5C9.46 14.5 10.8 14.01 11.87 13.19L13.29 14.61C13.49 14.81 13.81 14.81 14.01 14.61C14.21 14.41 14.21 14.09 14.01 13.89L12.59 12.47C13.41 11.4 13.9 10.06 13.9 8.6C13.9 8.4 13.89 8.2 13.87 8C13.67 4.53 11.14 1.72 7.8 1.52C7.87 1.51 7.93 1.5 8 1.5ZM8 3.5C10.49 3.5 12.5 5.51 12.5 8C12.5 10.49 10.49 12.5 8 12.5C5.51 12.5 3.5 10.49 3.5 8C3.5 5.51 5.51 3.5 8 3.5Z" fill="black"/>
</svg>
